<mxfile host="app.diagrams.net" agent="Mozilla/5.0 (Windows NT 10.0; Win64; x64) AppleWebKit/537.36 (KHTML, like Gecko) Chrome/131.0.0.0 Safari/537.36 OPR/116.0.0.0" version="26.0.4">
  <diagram id="prtHgNgQTEPvFCAcTncT" name="Page-1">
    <mxGraphModel dx="1453" dy="813" grid="1" gridSize="10" guides="1" tooltips="1" connect="1" arrows="1" fold="1" page="1" pageScale="1" pageWidth="2336" pageHeight="1654" math="0" shadow="0">
      <root>
        <mxCell id="0" />
        <mxCell id="1" parent="0" />
        <mxCell id="icHruYLdTanhfY2WVvGW-3" value="" style="rounded=0;whiteSpace=wrap;html=1;" vertex="1" parent="1">
          <mxGeometry x="40" y="100" width="200" height="1070" as="geometry" />
        </mxCell>
        <mxCell id="icHruYLdTanhfY2WVvGW-4" value="" style="rounded=0;whiteSpace=wrap;html=1;" vertex="1" parent="1">
          <mxGeometry x="240" y="95" width="250" height="1075" as="geometry" />
        </mxCell>
        <mxCell id="icHruYLdTanhfY2WVvGW-5" value="" style="rounded=0;whiteSpace=wrap;html=1;" vertex="1" parent="1">
          <mxGeometry x="480" y="100" width="270" height="1070" as="geometry" />
        </mxCell>
        <mxCell id="icHruYLdTanhfY2WVvGW-6" value="PROCES REKRUTACJI PRACOWNIKA" style="rounded=0;whiteSpace=wrap;html=1;align=center;" vertex="1" parent="1">
          <mxGeometry x="40" y="60" width="710" height="40" as="geometry" />
        </mxCell>
        <mxCell id="icHruYLdTanhfY2WVvGW-7" value="Kandydat" style="rounded=0;whiteSpace=wrap;html=1;" vertex="1" parent="1">
          <mxGeometry x="40" y="100" width="220" height="60" as="geometry" />
        </mxCell>
        <mxCell id="icHruYLdTanhfY2WVvGW-8" value="Rekruter HR" style="rounded=0;whiteSpace=wrap;html=1;" vertex="1" parent="1">
          <mxGeometry x="230" y="100" width="250" height="60" as="geometry" />
        </mxCell>
        <mxCell id="icHruYLdTanhfY2WVvGW-9" value="System HR" style="rounded=0;whiteSpace=wrap;html=1;" vertex="1" parent="1">
          <mxGeometry x="480" y="100" width="270" height="60" as="geometry" />
        </mxCell>
        <mxCell id="icHruYLdTanhfY2WVvGW-13" value="Przesłanie CV" style="rounded=0;whiteSpace=wrap;html=1;" vertex="1" parent="1">
          <mxGeometry x="60" y="450" width="160" height="40" as="geometry" />
        </mxCell>
        <mxCell id="icHruYLdTanhfY2WVvGW-14" value="Przygotowanie ogłoszenia o pracę" style="rounded=0;whiteSpace=wrap;html=1;" vertex="1" parent="1">
          <mxGeometry x="290" y="250" width="140" height="50" as="geometry" />
        </mxCell>
        <mxCell id="icHruYLdTanhfY2WVvGW-25" value="" style="edgeStyle=orthogonalEdgeStyle;rounded=0;orthogonalLoop=1;jettySize=auto;html=1;" edge="1" parent="1" source="icHruYLdTanhfY2WVvGW-15" target="icHruYLdTanhfY2WVvGW-24">
          <mxGeometry relative="1" as="geometry" />
        </mxCell>
        <mxCell id="icHruYLdTanhfY2WVvGW-15" value="Wstępne automatyczne sprawdzenie CV w kontekście wymagań oferty pracy" style="rounded=0;whiteSpace=wrap;html=1;" vertex="1" parent="1">
          <mxGeometry x="605" y="380" width="140" height="70" as="geometry" />
        </mxCell>
        <mxCell id="icHruYLdTanhfY2WVvGW-16" value="Ogłoszenie umieszczone w systemie" style="rounded=0;whiteSpace=wrap;html=1;" vertex="1" parent="1">
          <mxGeometry x="530" y="250" width="170" height="50" as="geometry" />
        </mxCell>
        <mxCell id="icHruYLdTanhfY2WVvGW-42" value="NIE" style="edgeStyle=orthogonalEdgeStyle;rounded=0;orthogonalLoop=1;jettySize=auto;html=1;" edge="1" parent="1" source="icHruYLdTanhfY2WVvGW-24" target="icHruYLdTanhfY2WVvGW-41">
          <mxGeometry relative="1" as="geometry" />
        </mxCell>
        <mxCell id="icHruYLdTanhfY2WVvGW-77" value="TAK" style="edgeStyle=orthogonalEdgeStyle;rounded=0;orthogonalLoop=1;jettySize=auto;html=1;" edge="1" parent="1" source="icHruYLdTanhfY2WVvGW-24" target="icHruYLdTanhfY2WVvGW-76">
          <mxGeometry relative="1" as="geometry">
            <Array as="points">
              <mxPoint x="620" y="525" />
              <mxPoint x="620" y="590" />
            </Array>
          </mxGeometry>
        </mxCell>
        <mxCell id="icHruYLdTanhfY2WVvGW-24" value="czy CV jest zgodne?" style="rhombus;whiteSpace=wrap;html=1;" vertex="1" parent="1">
          <mxGeometry x="630" y="480" width="90" height="90" as="geometry" />
        </mxCell>
        <mxCell id="icHruYLdTanhfY2WVvGW-128" value="" style="edgeStyle=orthogonalEdgeStyle;rounded=0;orthogonalLoop=1;jettySize=auto;html=1;" edge="1" parent="1" source="icHruYLdTanhfY2WVvGW-37" target="icHruYLdTanhfY2WVvGW-43">
          <mxGeometry relative="1" as="geometry" />
        </mxCell>
        <mxCell id="icHruYLdTanhfY2WVvGW-37" value="Weryfikacja CV przez rekrutera" style="rounded=0;whiteSpace=wrap;html=1;" vertex="1" parent="1">
          <mxGeometry x="297.5" y="520" width="120" height="60" as="geometry" />
        </mxCell>
        <mxCell id="icHruYLdTanhfY2WVvGW-91" value="" style="edgeStyle=orthogonalEdgeStyle;rounded=0;orthogonalLoop=1;jettySize=auto;html=1;" edge="1" parent="1" source="icHruYLdTanhfY2WVvGW-41" target="icHruYLdTanhfY2WVvGW-80">
          <mxGeometry relative="1" as="geometry" />
        </mxCell>
        <mxCell id="icHruYLdTanhfY2WVvGW-41" value="&lt;div&gt;&lt;span style=&quot;background-color: transparent; color: light-dark(rgb(0, 0, 0), rgb(255, 255, 255));&quot;&gt;Wysłanie maila&amp;nbsp;&lt;/span&gt;&lt;span style=&quot;background-color: transparent; color: light-dark(rgb(0, 0, 0), rgb(255, 255, 255));&quot;&gt;z informacją&amp;nbsp;&lt;/span&gt;&lt;span style=&quot;background-color: transparent; color: light-dark(rgb(0, 0, 0), rgb(255, 255, 255));&quot;&gt;do Kandydata&lt;/span&gt;&lt;/div&gt;" style="whiteSpace=wrap;html=1;" vertex="1" parent="1">
          <mxGeometry x="537.5" y="720" width="145" height="65" as="geometry" />
        </mxCell>
        <mxCell id="icHruYLdTanhfY2WVvGW-47" value="NIE" style="edgeStyle=orthogonalEdgeStyle;rounded=0;orthogonalLoop=1;jettySize=auto;html=1;entryX=0.5;entryY=0;entryDx=0;entryDy=0;exitX=1;exitY=0.5;exitDx=0;exitDy=0;" edge="1" parent="1" source="icHruYLdTanhfY2WVvGW-43" target="icHruYLdTanhfY2WVvGW-45">
          <mxGeometry x="-0.174" relative="1" as="geometry">
            <mxPoint x="410" y="550.0754545454545" as="sourcePoint" />
            <mxPoint x="445" y="772.53" as="targetPoint" />
            <Array as="points">
              <mxPoint x="410" y="700" />
              <mxPoint x="420" y="700" />
            </Array>
            <mxPoint as="offset" />
          </mxGeometry>
        </mxCell>
        <mxCell id="icHruYLdTanhfY2WVvGW-43" value="Czy pozytywna opinia?" style="rhombus;whiteSpace=wrap;html=1;rounded=0;" vertex="1" parent="1">
          <mxGeometry x="305" y="650" width="105" height="105" as="geometry" />
        </mxCell>
        <mxCell id="icHruYLdTanhfY2WVvGW-45" value="Wysłanie maila z informacją do Kandydata" style="whiteSpace=wrap;html=1;rounded=0;" vertex="1" parent="1">
          <mxGeometry x="370" y="860" width="100" height="60" as="geometry" />
        </mxCell>
        <mxCell id="icHruYLdTanhfY2WVvGW-51" value="Zaproszenie na spotkanie rekrutacyjne" style="rounded=0;whiteSpace=wrap;html=1;" vertex="1" parent="1">
          <mxGeometry x="250" y="860" width="100" height="60" as="geometry" />
        </mxCell>
        <mxCell id="icHruYLdTanhfY2WVvGW-55" value="TAK" style="endArrow=classic;html=1;rounded=0;exitX=0;exitY=0.5;exitDx=0;exitDy=0;entryX=0.5;entryY=0;entryDx=0;entryDy=0;" edge="1" parent="1" source="icHruYLdTanhfY2WVvGW-43" target="icHruYLdTanhfY2WVvGW-51">
          <mxGeometry x="-0.1155" width="50" height="50" relative="1" as="geometry">
            <mxPoint x="260" y="690" as="sourcePoint" />
            <mxPoint x="310" y="640" as="targetPoint" />
            <Array as="points">
              <mxPoint x="300" y="700" />
            </Array>
            <mxPoint as="offset" />
          </mxGeometry>
        </mxCell>
        <mxCell id="icHruYLdTanhfY2WVvGW-68" value="" style="edgeStyle=orthogonalEdgeStyle;rounded=0;orthogonalLoop=1;jettySize=auto;html=1;" edge="1" parent="1" source="icHruYLdTanhfY2WVvGW-56" target="icHruYLdTanhfY2WVvGW-58">
          <mxGeometry relative="1" as="geometry" />
        </mxCell>
        <mxCell id="icHruYLdTanhfY2WVvGW-56" value="Zaakceptowanie regulaminu systemu rekrutacji" style="rounded=0;whiteSpace=wrap;html=1;" vertex="1" parent="1">
          <mxGeometry x="60" y="270" width="160" height="60" as="geometry" />
        </mxCell>
        <mxCell id="icHruYLdTanhfY2WVvGW-69" value="" style="edgeStyle=orthogonalEdgeStyle;rounded=0;orthogonalLoop=1;jettySize=auto;html=1;" edge="1" parent="1" source="icHruYLdTanhfY2WVvGW-58" target="icHruYLdTanhfY2WVvGW-13">
          <mxGeometry relative="1" as="geometry" />
        </mxCell>
        <mxCell id="icHruYLdTanhfY2WVvGW-58" value="Podanie informacji w systemie o oczekiwanym wynagrodzeniu i latach doświadczenia" style="rounded=0;whiteSpace=wrap;html=1;" vertex="1" parent="1">
          <mxGeometry x="60" y="360" width="160" height="60" as="geometry" />
        </mxCell>
        <mxCell id="icHruYLdTanhfY2WVvGW-59" value="Założenie profilu kandydata" style="rounded=0;whiteSpace=wrap;html=1;" vertex="1" parent="1">
          <mxGeometry x="60" y="180" width="160" height="60" as="geometry" />
        </mxCell>
        <mxCell id="icHruYLdTanhfY2WVvGW-60" value="Funkcja obsługi kandydatów" style="rounded=0;whiteSpace=wrap;html=1;" vertex="1" parent="1">
          <mxGeometry x="530" y="170" width="170" height="60" as="geometry" />
        </mxCell>
        <mxCell id="icHruYLdTanhfY2WVvGW-63" value="" style="endArrow=classic;html=1;rounded=0;entryX=1;entryY=0.5;entryDx=0;entryDy=0;" edge="1" parent="1" target="icHruYLdTanhfY2WVvGW-59">
          <mxGeometry width="50" height="50" relative="1" as="geometry">
            <mxPoint x="530" y="210" as="sourcePoint" />
            <mxPoint x="580" y="160" as="targetPoint" />
          </mxGeometry>
        </mxCell>
        <mxCell id="icHruYLdTanhfY2WVvGW-65" value="" style="endArrow=classic;html=1;rounded=0;entryX=0.5;entryY=0;entryDx=0;entryDy=0;exitX=0.5;exitY=1;exitDx=0;exitDy=0;" edge="1" parent="1" source="icHruYLdTanhfY2WVvGW-59" target="icHruYLdTanhfY2WVvGW-56">
          <mxGeometry width="50" height="50" relative="1" as="geometry">
            <mxPoint x="160" y="240" as="sourcePoint" />
            <mxPoint x="210" y="190" as="targetPoint" />
          </mxGeometry>
        </mxCell>
        <mxCell id="icHruYLdTanhfY2WVvGW-74" value="" style="endArrow=classic;html=1;rounded=0;entryX=0;entryY=0.5;entryDx=0;entryDy=0;exitX=1;exitY=0.5;exitDx=0;exitDy=0;" edge="1" parent="1" source="icHruYLdTanhfY2WVvGW-14" target="icHruYLdTanhfY2WVvGW-16">
          <mxGeometry width="50" height="50" relative="1" as="geometry">
            <mxPoint x="430" y="290" as="sourcePoint" />
            <mxPoint x="480" y="240" as="targetPoint" />
          </mxGeometry>
        </mxCell>
        <mxCell id="icHruYLdTanhfY2WVvGW-76" value="Wysłanie powiadomienia do rekrutera" style="rounded=0;whiteSpace=wrap;html=1;" vertex="1" parent="1">
          <mxGeometry x="490" y="570" width="110" height="60" as="geometry" />
        </mxCell>
        <mxCell id="icHruYLdTanhfY2WVvGW-78" value="" style="endArrow=classic;html=1;rounded=0;entryX=1;entryY=0.5;entryDx=0;entryDy=0;exitX=0.5;exitY=0;exitDx=0;exitDy=0;" edge="1" parent="1" source="icHruYLdTanhfY2WVvGW-76" target="icHruYLdTanhfY2WVvGW-37">
          <mxGeometry width="50" height="50" relative="1" as="geometry">
            <mxPoint x="540" y="542.5" as="sourcePoint" />
            <mxPoint x="590" y="492.5" as="targetPoint" />
            <Array as="points">
              <mxPoint x="545" y="550" />
            </Array>
          </mxGeometry>
        </mxCell>
        <mxCell id="icHruYLdTanhfY2WVvGW-80" value="Czy kandydat &lt;br&gt;zaznaczył w swoim &lt;br&gt;profilu chęć wzięcia &lt;br&gt;udziału w przyszłych rekrutacjach?" style="rhombus;whiteSpace=wrap;html=1;" vertex="1" parent="1">
          <mxGeometry x="520" y="850" width="180" height="140" as="geometry" />
        </mxCell>
        <mxCell id="icHruYLdTanhfY2WVvGW-92" value="usunięcie CV" style="rounded=0;whiteSpace=wrap;html=1;" vertex="1" parent="1">
          <mxGeometry x="620" y="1050" width="115" height="60" as="geometry" />
        </mxCell>
        <mxCell id="icHruYLdTanhfY2WVvGW-93" value="Przeniesienie CV do bazy kandydatów" style="rounded=0;whiteSpace=wrap;html=1;" vertex="1" parent="1">
          <mxGeometry x="495" y="1050" width="110" height="60" as="geometry" />
        </mxCell>
        <mxCell id="icHruYLdTanhfY2WVvGW-96" value="" style="endArrow=classic;html=1;rounded=0;entryX=0.5;entryY=0;entryDx=0;entryDy=0;exitX=0;exitY=1;exitDx=0;exitDy=0;" edge="1" parent="1" source="icHruYLdTanhfY2WVvGW-80" target="icHruYLdTanhfY2WVvGW-93">
          <mxGeometry width="50" height="50" relative="1" as="geometry">
            <mxPoint x="560" y="840" as="sourcePoint" />
            <mxPoint x="610" y="790" as="targetPoint" />
            <Array as="points" />
          </mxGeometry>
        </mxCell>
        <mxCell id="icHruYLdTanhfY2WVvGW-99" value="TAK" style="edgeLabel;html=1;align=center;verticalAlign=middle;resizable=0;points=[];" vertex="1" connectable="0" parent="icHruYLdTanhfY2WVvGW-96">
          <mxGeometry x="0.3167" y="1" relative="1" as="geometry">
            <mxPoint as="offset" />
          </mxGeometry>
        </mxCell>
        <mxCell id="icHruYLdTanhfY2WVvGW-97" value="" style="endArrow=classic;html=1;rounded=0;exitX=1;exitY=1;exitDx=0;exitDy=0;" edge="1" parent="1" source="icHruYLdTanhfY2WVvGW-80" target="icHruYLdTanhfY2WVvGW-92">
          <mxGeometry width="50" height="50" relative="1" as="geometry">
            <mxPoint x="630" y="940" as="sourcePoint" />
            <mxPoint x="680" y="890" as="targetPoint" />
          </mxGeometry>
        </mxCell>
        <mxCell id="icHruYLdTanhfY2WVvGW-98" value="NIE" style="edgeLabel;html=1;align=center;verticalAlign=middle;resizable=0;points=[];" vertex="1" connectable="0" parent="icHruYLdTanhfY2WVvGW-97">
          <mxGeometry x="-0.04" y="-1" relative="1" as="geometry">
            <mxPoint as="offset" />
          </mxGeometry>
        </mxCell>
        <mxCell id="icHruYLdTanhfY2WVvGW-101" value="" style="rhombus;whiteSpace=wrap;html=1;" vertex="1" parent="1">
          <mxGeometry x="505" y="340" width="80" height="80" as="geometry" />
        </mxCell>
        <mxCell id="icHruYLdTanhfY2WVvGW-102" value="" style="shape=cross;whiteSpace=wrap;html=1;shadow=0;gradientColor=none;fillColor=#000000;size=0.15;" vertex="1" parent="1">
          <mxGeometry x="525" y="360" width="40" height="40" as="geometry" />
        </mxCell>
        <mxCell id="icHruYLdTanhfY2WVvGW-105" value="" style="endArrow=classic;html=1;rounded=0;entryX=0;entryY=0.5;entryDx=0;entryDy=0;" edge="1" parent="1" target="icHruYLdTanhfY2WVvGW-101">
          <mxGeometry width="50" height="50" relative="1" as="geometry">
            <mxPoint x="220" y="450" as="sourcePoint" />
            <mxPoint x="270" y="400" as="targetPoint" />
            <Array as="points">
              <mxPoint x="300" y="380" />
            </Array>
          </mxGeometry>
        </mxCell>
        <mxCell id="icHruYLdTanhfY2WVvGW-106" value="" style="endArrow=classic;html=1;rounded=0;entryX=1;entryY=0;entryDx=0;entryDy=0;exitX=0.5;exitY=1;exitDx=0;exitDy=0;" edge="1" parent="1" source="icHruYLdTanhfY2WVvGW-16" target="icHruYLdTanhfY2WVvGW-101">
          <mxGeometry width="50" height="50" relative="1" as="geometry">
            <mxPoint x="600" y="310" as="sourcePoint" />
            <mxPoint x="650" y="260" as="targetPoint" />
          </mxGeometry>
        </mxCell>
        <mxCell id="icHruYLdTanhfY2WVvGW-108" value="" style="endArrow=classic;html=1;rounded=0;entryX=0;entryY=0.5;entryDx=0;entryDy=0;exitX=1;exitY=1;exitDx=0;exitDy=0;" edge="1" parent="1" source="icHruYLdTanhfY2WVvGW-101" target="icHruYLdTanhfY2WVvGW-15">
          <mxGeometry width="50" height="50" relative="1" as="geometry">
            <mxPoint x="555" y="395" as="sourcePoint" />
            <mxPoint x="605" y="345" as="targetPoint" />
          </mxGeometry>
        </mxCell>
        <mxCell id="icHruYLdTanhfY2WVvGW-110" value="Przeglądanie bazy kandydatów" style="rounded=0;whiteSpace=wrap;html=1;" vertex="1" parent="1">
          <mxGeometry x="300" y="1050" width="120" height="60" as="geometry" />
        </mxCell>
        <mxCell id="icHruYLdTanhfY2WVvGW-114" value="" style="endArrow=classic;html=1;rounded=0;entryX=1;entryY=0.5;entryDx=0;entryDy=0;exitX=0;exitY=0.5;exitDx=0;exitDy=0;" edge="1" parent="1" source="icHruYLdTanhfY2WVvGW-93" target="icHruYLdTanhfY2WVvGW-110">
          <mxGeometry width="50" height="50" relative="1" as="geometry">
            <mxPoint x="490" y="920" as="sourcePoint" />
            <mxPoint x="540" y="870" as="targetPoint" />
          </mxGeometry>
        </mxCell>
        <mxCell id="icHruYLdTanhfY2WVvGW-123" value="" style="endArrow=classic;html=1;rounded=0;entryX=0.208;entryY=0.708;entryDx=0;entryDy=0;entryPerimeter=0;exitX=0.5;exitY=1;exitDx=0;exitDy=0;" edge="1" parent="1" source="icHruYLdTanhfY2WVvGW-51" target="icHruYLdTanhfY2WVvGW-80">
          <mxGeometry width="50" height="50" relative="1" as="geometry">
            <mxPoint x="290" y="730" as="sourcePoint" />
            <mxPoint x="340" y="660" as="targetPoint" />
            <Array as="points">
              <mxPoint x="300" y="950" />
            </Array>
          </mxGeometry>
        </mxCell>
        <mxCell id="icHruYLdTanhfY2WVvGW-129" value="" style="endArrow=classic;html=1;rounded=0;entryX=0.115;entryY=0.407;entryDx=0;entryDy=0;entryPerimeter=0;" edge="1" parent="1" target="icHruYLdTanhfY2WVvGW-80">
          <mxGeometry width="50" height="50" relative="1" as="geometry">
            <mxPoint x="470" y="890" as="sourcePoint" />
            <mxPoint x="520" y="840" as="targetPoint" />
            <Array as="points">
              <mxPoint x="520" y="890" />
            </Array>
          </mxGeometry>
        </mxCell>
      </root>
    </mxGraphModel>
  </diagram>
</mxfile>
